<?xml version="1.0" standalone="no"?>
<!DOCTYPE svg PUBLIC "-//W3C//DTD SVG 20010904//EN"
 "http://www.w3.org/TR/2001/REC-SVG-20010904/DTD/svg10.dtd">
<svg version="1.0" xmlns="http://www.w3.org/2000/svg"
 width="260.000000pt" height="260.000000pt" viewBox="0 0 260.000000 260.000000"
 preserveAspectRatio="xMidYMid meet">
<metadata>
Created by potrace 1.11, written by Peter Selinger 2001-2013
</metadata>
<g transform="translate(0.000000,260.000000) scale(0.100000,-0.100000)"
fill="#000000" stroke="none">
<path d="M77 2523 c-2 -5 -3 -557 -3 -1228 l1 -1220 253 -3 252 -2 0 727 1
728 68 -165 c62 -151 467 -1148 507 -1248 l16 -43 126 3 126 3 92 225 c50 124
96 238 102 254 l12 29 77 -102 c43 -57 130 -171 193 -254 l115 -152 255 0 254
0 1 1215 c0 668 -1 1221 -3 1228 -3 9 -62 12 -251 12 l-247 0 -2 -103 -2 -102
-220 -549 c-121 -302 -221 -551 -223 -553 -2 -2 -69 83 -149 189 -80 106 -197
261 -259 343 -63 83 -213 281 -333 440 -121 160 -228 300 -239 313 -20 22 -24
22 -268 22 -136 0 -250 -3 -252 -7z m950 -1145 c68 -90 183 -242 255 -338 73
-96 137 -178 142 -182 7 -4 6 -15 -2 -30 -9 -19 -49 -116 -114 -278 -8 -22
-35 38 -214 485 -112 280 -204 512 -204 514 0 8 12 -7 137 -171z m997 -278
c-1 -248 -3 -453 -6 -455 -3 -3 -58 64 -122 149 l-117 154 52 129 c28 70 57
142 64 158 10 24 99 244 122 303 3 6 6 12 7 12 0 0 1 -203 0 -450z"/>
</g>
</svg>
